<svg xmlns="http://www.w3.org/2000/svg" xmlns:xlink="http://www.w3.org/1999/xlink" version="1.1" width="1680px" height="807px" viewBox="0 0 1680.0 807.0"><defs><clipPath id="i0"><path d="M1680,0 L1680,8847 L0,8847 L0,0 L1680,0 Z"/></clipPath><clipPath id="i1"><path d="M1680,1.8189894e-12 L1680,731 L1680,793.540552 C1555.20944,751.846851 1388.92789,731 1181.15535,731 C869.49653,731 642.054879,807 436.54163,807 C299.532797,807 154.01892,781.666667 1.8189894e-12,731 L-1.8189894e-12,1.8189894e-12 L1680,1.8189894e-12 Z"/></clipPath></defs><g transform="translate(0.0 -3419.0)"><g clip-path="url(#i0)"><g transform="translate(0.0 3419.0)"><g transform="translate(1680.000000000003 806.9999999999983) rotate(-180.0)"><g clip-path="url(#i1)"><polygon points="2.50111043e-12,1.8189894e-12 1680,1.8189894e-12 1680,807 2.50111043e-12,807 2.50111043e-12,1.8189894e-12" stroke="none" fill="#E8E1EA"/></g></g></g></g></g></svg>